<svg width="17" height="11" viewBox="0 0 17 11" fill="none" xmlns="http://www.w3.org/2000/svg">
<path fill-rule="evenodd" clip-rule="evenodd" d="M16.1185 1.53223C16.2387 1.15142 16.1185 0.87444 15.5862 0.87444H13.8174C13.371 0.87444 13.1649 1.11677 13.0447 1.37647C13.0447 1.37647 12.1345 3.59222 10.8638 5.02896C10.4517 5.44443 10.2628 5.58291 10.0396 5.58291C9.91932 5.58291 9.76481 5.44443 9.76481 5.06361V1.51491C9.76481 1.06485 9.62743 0.857117 9.24961 0.857117H6.46775C6.19299 0.857117 6.02129 1.06485 6.02129 1.27258C6.02129 1.70537 6.65663 1.80921 6.72532 3.02095V5.65216C6.72532 6.22343 6.62231 6.32727 6.39906 6.32727C5.79803 6.32727 4.33841 4.0942 3.46263 1.54955C3.29088 1.04752 3.11918 0.857117 2.67272 0.857117H0.886785C0.371631 0.857117 0.285767 1.0995 0.285767 1.35915C0.285767 1.82653 0.886785 4.18077 3.08481 7.29669C4.54448 9.42587 6.62231 10.5684 8.49407 10.5684C9.62743 10.5684 9.76481 10.3087 9.76481 9.87598V8.2661C9.76481 7.74674 9.86782 7.66023 10.2285 7.66023C10.486 7.66023 10.9497 7.79866 11.9972 8.82C13.1992 10.0317 13.4053 10.5857 14.075 10.5857H15.8437C16.3589 10.5857 16.5993 10.326 16.4619 9.82401C16.3074 9.32203 15.7235 8.59499 14.968 7.72942C14.5558 7.24477 13.9376 6.70814 13.7487 6.44844C13.4911 6.10227 13.5598 5.96378 13.7487 5.65216C13.7316 5.65216 15.8952 2.57089 16.1185 1.53223Z" fill="white"/>
</svg>
