<svg width="15" height="13" viewBox="0 0 15 13" fill="none" xmlns="http://www.w3.org/2000/svg">
<path d="M0.221895 6.0884C1.72488 5.26051 3.40263 4.56954 4.97024 3.87505C7.66713 2.73751 10.3747 1.61969 13.1097 0.579009C13.6418 0.401688 14.5979 0.228277 14.6916 1.01685C14.6403 2.13306 14.4291 3.24274 14.2843 4.35242C13.9166 6.79271 13.4917 9.22463 13.0773 11.6569C12.9345 12.467 11.9196 12.8865 11.2702 12.368C9.7096 11.3138 8.13695 10.2699 6.59624 9.19131C6.09154 8.67847 6.55954 7.94203 7.01029 7.57581C8.29569 6.30906 9.65886 5.23281 10.8771 3.9006C11.2057 3.10704 10.2348 3.77583 9.91451 3.98074C8.15479 5.19338 6.43815 6.48006 4.58287 7.54581C3.63519 8.06749 2.53065 7.62167 1.5834 7.33056C0.73407 6.97892 -0.510512 6.62465 0.221809 6.08846L0.221895 6.0884Z" fill="white"/>
</svg>
